<?xml version="1.0" encoding="UTF-8"?>
<svg id="_레이어_1" data-name="레이어_1" xmlns="http://www.w3.org/2000/svg" viewBox="0 0 1262.6 190.16">
  <defs>
    <style>
      .cls-1 {
        stroke: #000;
        stroke-miterlimit: 10;
      }

      .cls-1, .cls-2 {
        fill: red;
      }
    </style>
  </defs>
  <rect width="1262.6" height="190.16"/>
  <rect class="cls-1" x="-2.25" y="86.37" width="1236.88" height="13.91"/>
  <polygon class="cls-2" points="1241.92 91.79 1179.56 29.44 1169.73 39.27 1222.25 91.79 1169.46 144.59 1179.29 154.42 1241.64 92.07 1241.64 92.07 1241.92 91.79"/>
  <circle class="cls-2" cx="377.96" cy="93.32" r="12.04"/>
  <circle class="cls-2" cx="759.66" cy="93.32" r="12.04"/>
  <g>
    <circle cx="181.68" cy="93.32" r="12.04"/>
    <path class="cls-2" d="M181.68,107.86c-8.02,0-14.54-6.52-14.54-14.54s6.52-14.54,14.54-14.54,14.54,6.52,14.54,14.54-6.52,14.54-14.54,14.54ZM181.68,83.78c-5.26,0-9.54,4.28-9.54,9.54s4.28,9.54,9.54,9.54,9.54-4.28,9.54-9.54-4.28-9.54-9.54-9.54Z"/>
  </g>
  <g>
    <circle cx="566.7" cy="93.32" r="12.04"/>
    <path class="cls-2" d="M566.7,107.86c-8.02,0-14.54-6.52-14.54-14.54s6.52-14.54,14.54-14.54,14.54,6.52,14.54,14.54-6.52,14.54-14.54,14.54ZM566.7,83.78c-5.26,0-9.54,4.28-9.54,9.54s4.28,9.54,9.54,9.54,9.54-4.28,9.54-9.54-4.28-9.54-9.54-9.54Z"/>
  </g>
  <g>
    <circle cx="945.23" cy="93.32" r="12.04"/>
    <path class="cls-2" d="M945.23,107.86c-8.02,0-14.54-6.52-14.54-14.54s6.52-14.54,14.54-14.54,14.54,6.52,14.54,14.54-6.52,14.54-14.54,14.54ZM945.23,83.78c-5.26,0-9.54,4.28-9.54,9.54s4.28,9.54,9.54,9.54,9.54-4.28,9.54-9.54-4.28-9.54-9.54-9.54Z"/>
  </g>
</svg>